<svg width="600" height="600" viewBox="0 0 600 600" fill="none" xmlns="http://www.w3.org/2000/svg">
<rect width="600" height="600" rx="32" fill="#6B5CA5"/>
<g clip-path="url(#clip0_5_36)">
<rect width="112.472" height="129.176" transform="translate(85.1879 285.469) rotate(-11.3995)" fill="#203451"/>
<rect width="78.0736" height="129.176" transform="translate(195.442 263.239) rotate(-11.3995)" fill="#203451"/>
<rect width="78.0736" height="129.176" transform="translate(271.975 247.807) rotate(-11.3995)" fill="#203451"/>
<rect width="78.0736" height="129.176" transform="translate(348.508 232.376) rotate(-11.3995)" fill="#2C557A"/>
</g>
<g clip-path="url(#clip1_5_36)">
<rect width="112.472" height="129.176" transform="translate(87.6323 325.726) rotate(-50.9548)" fill="#203451"/>
<rect width="64.4361" height="129.176" transform="translate(158.483 238.375) rotate(-50.9548)" fill="#267274"/>
<rect width="64.4361" height="129.176" transform="translate(199.073 188.33) rotate(-50.9548)" fill="#389898"/>
<rect width="64.4361" height="129.176" transform="translate(239.663 138.286) rotate(-50.9548)" fill="#64BEA4"/>
</g>
<g clip-path="url(#clip2_5_36)">
<rect width="112.472" height="129.176" transform="translate(87.6323 400.094) rotate(-90)" fill="#203451"/>
<rect x="130.917" y="322.554" width="42.6073" height="42.6073" rx="21.3036" fill="#6B5CA4"/>
<rect width="73.4969" height="129.176" transform="translate(87.6323 287.621) rotate(-90)" fill="#3E9A86"/>
<rect width="73.4969" height="129.176" transform="translate(87.6323 214.125) rotate(-90)" fill="#77CBA4"/>
<rect width="73.4969" height="129.176" transform="translate(87.6323 140.628) rotate(-90)" fill="#A7DBAE"/>
</g>
<path d="M197.753 540.099L232.001 441.456H256.269L290.585 540.099H268.847L261.532 516.173H226.738L219.423 540.099H197.753ZM243.554 461.144L231.454 500.724H256.816L244.784 461.144H243.554ZM323.329 540.099V460.939H322.099L297.9 477.755V459.161L323.398 441.456H343.974V540.099H323.329ZM394.97 540.099V460.939H393.74L369.54 477.755V459.161L395.038 441.456H415.615V540.099H394.97ZM471.738 540.099V503.253L437.421 441.456H459.775L481.513 482.95H482.743L504.413 441.456H526.767L492.382 503.253V540.099H471.738Z" fill="white"/>
<rect x="57.4534" y="400.094" width="153.767" height="63.1164" fill="#6B5CA5"/>
<rect x="240.515" y="282.475" width="113.493" height="113.493" rx="56.7466" fill="#F2F2F2"/>
<rect x="240.515" y="282.475" width="113.493" height="113.493" rx="56.7466" stroke="#203451" stroke-width="11"/>
<path d="M270.513 340.205L287.69 357.381L324.01 321.061" stroke="#203451" stroke-width="13.3744" stroke-linecap="round" stroke-linejoin="round"/>
<defs>
<clipPath id="clip0_5_36">
<rect x="85.1879" y="285.469" width="346.693" height="129.176" rx="20.0446" transform="rotate(-11.3995 85.1879 285.469)" fill="white"/>
</clipPath>
<clipPath id="clip1_5_36">
<rect x="87.6323" y="325.726" width="305.781" height="129.176" rx="20.0446" transform="rotate(-50.9548 87.6323 325.726)" fill="white"/>
</clipPath>
<clipPath id="clip2_5_36">
<rect x="87.6323" y="400.094" width="332.963" height="129.176" rx="20.0446" transform="rotate(-90 87.6323 400.094)" fill="white"/>
</clipPath>
</defs>
</svg>
